<?xml version="1.0" encoding="UTF-8"?>
<svg width="136px" height="46px" viewBox="0 0 136 46" version="1.1" xmlns="http://www.w3.org/2000/svg" xmlns:xlink="http://www.w3.org/1999/xlink">
    <title>GOV.SALogoEN</title>
    <defs>
        <path d="M0.262285714,1.94577143 C-0.155104762,3.24100952 0.5508,4.63371429 1.8460381,5.05110476 L1.8460381,5.05110476 C2.97937143,5.42057143 4.18070476,4.92514286 4.74704762,3.93072381 L4.74704762,3.93072381 L14.594419,3.93072381 L31.050419,27.7177714 C31.2868,28.0645714 31.6688952,28.245581 32.0571429,28.245581 L32.0571429,28.245581 C32.2970857,28.245581 32.5399429,28.177581 32.7533333,28.0286286 L32.7533333,28.0286286 C33.3073714,27.6432952 33.4466095,26.8823429 33.0612762,26.3286286 L33.0612762,26.3286286 L16.2426095,2.01377143 C16.0127048,1.68348571 15.6370857,1.48628571 15.2355619,1.48628571 L15.2355619,1.48628571 L4.74413333,1.48628571 C4.45270476,0.971104762 3.97670476,0.563104762 3.37118095,0.365580952 L3.37118095,0.365580952 C3.11504762,0.281390476 2.8592381,0.242533333 2.60699048,0.242533333 L2.60699048,0.242533333 C1.5675619,0.242533333 0.602609524,0.906342857 0.262285714,1.94577143" id="path-1"></path>
        <linearGradient x1="-21.7907246%" y1="75.9803979%" x2="157.294576%" y2="75.9803979%" id="linearGradient-3">
            <stop stop-color="#1A9382" offset="0%"></stop>
            <stop stop-color="#04443D" offset="100%"></stop>
        </linearGradient>
        <linearGradient x1="50.0004804%" y1="15.6011613%" x2="50.0004804%" y2="123.962769%" id="linearGradient-4">
            <stop stop-color="#29B3B4" offset="0%"></stop>
            <stop stop-color="#0F92B5" offset="27.47%"></stop>
            <stop stop-color="#007EB5" offset="47.56%"></stop>
            <stop stop-color="#6F4B99" offset="100%"></stop>
        </linearGradient>
        <path d="M0.262285714,1.94577143 C-0.155104762,3.24100952 0.5508,4.63371429 1.8460381,5.05110476 L1.8460381,5.05110476 C2.97937143,5.42057143 4.18070476,4.92514286 4.74704762,3.93072381 L4.74704762,3.93072381 L14.594419,3.93072381 L31.050419,27.7177714 C31.2868,28.0645714 31.6688952,28.245581 32.0571429,28.245581 L32.0571429,28.245581 C32.2970857,28.245581 32.5399429,28.177581 32.7533333,28.0286286 L32.7533333,28.0286286 C33.3073714,27.6432952 33.4466095,26.8823429 33.0612762,26.3286286 L33.0612762,26.3286286 L16.2426095,2.01377143 C16.0127048,1.68348571 15.6370857,1.48628571 15.2355619,1.48628571 L15.2355619,1.48628571 L4.74413333,1.48628571 C4.45270476,0.971104762 3.97670476,0.563104762 3.37118095,0.365580952 L3.37118095,0.365580952 C3.11504762,0.281390476 2.8592381,0.242533333 2.60699048,0.242533333 L2.60699048,0.242533333 C1.5675619,0.242533333 0.602609524,0.906342857 0.262285714,1.94577143 L0.262285714,1.94577143 Z" id="path-5"></path>
        <path d="M29.9439619,1.72072381 C29.5233333,3.01531429 30.2315048,4.40575238 31.5260952,4.82605714 L31.5260952,4.82605714 C31.8499048,4.93129524 32.1801905,4.96561905 32.4991429,4.93841905 L32.4991429,4.93841905 L43.3292762,20.5952571 C43.5582095,20.9258667 43.9344762,21.1227429 44.3356762,21.1227429 L44.3356762,21.1227429 L50.8397143,21.1227429 L48.3748762,25.5913143 L26.5854095,25.5848381 L14.3787619,8.02820952 C13.9931048,7.47352381 13.2308571,7.33655238 12.6758476,7.72220952 L12.6758476,7.72220952 C12.1211619,8.10786667 11.9841905,8.87011429 12.3698476,9.4248 L12.3698476,9.4248 L24.9411048,27.5066476 C25.1693905,27.8353143 25.5450095,28.0315429 25.9449143,28.0315429 L25.9449143,28.0315429 L49.0966476,28.0383429 L49.0969714,28.0383429 C49.5425333,28.0383429 49.9528,27.7958095 50.1681333,27.4059429 L50.1681333,27.4059429 L53.9826095,20.4903429 C54.1917905,20.1114857 54.1849905,19.650381 53.9651238,19.2776762 L53.9651238,19.2776762 C53.7449333,18.9046476 53.344381,18.6760381 52.9114476,18.6760381 L52.9114476,18.6760381 L44.976819,18.6760381 L34.511619,3.5460381 C34.5576,3.44921905 34.5980762,3.34851429 34.6320762,3.2436 L34.6320762,3.2436 C35.052381,1.94933333 34.3438857,0.558895238 33.0492952,0.138266667 L33.0492952,0.138266667 C32.7964,0.0560190476 32.539619,0.0171617861 32.2873714,0.0171617861 L32.2873714,0.0171617861 C31.2485905,0.0168380952 30.2823429,0.679028571 29.9439619,1.72072381 L29.9439619,1.72072381 Z M1.34186667,1.25897143 C0.886266667,1.25897143 0.46887619,1.51154286 0.25807619,1.91468571 L0.25807619,1.91468571 C0.0466285714,2.31782857 0.0770666667,2.8048381 0.336438095,3.1791619 L0.336438095,3.1791619 L21.9808381,34.408 C22.2088,34.7379619 22.584419,34.9345143 22.9862667,34.9345143 L22.9862667,34.9345143 L31.7177905,34.9345143 C32.0105143,35.4539048 32.4913714,35.8696762 33.1033714,36.0684952 L33.1033714,36.0684952 C34.3979619,36.4894476 35.7887238,35.7809524 36.2087048,34.4860381 L36.2087048,34.4860381 C36.6293333,33.1917714 35.9208381,31.8013333 34.6262476,31.3807048 L34.6262476,31.3807048 C34.3733524,31.2984571 34.1165714,31.2592762 33.8643238,31.2592762 L33.8643238,31.2592762 C32.9939238,31.2592762 32.1743619,31.7239429 31.7323619,32.4878095 L31.7323619,32.4878095 L23.6264381,32.4878095 L3.67782857,3.70535238 L16.7934095,3.70535238 C17.4685524,3.70535238 18.0164381,3.15746667 18.0164381,2.48232381 L18.0164381,2.48232381 C18.0164381,1.80685714 17.4685524,1.25897143 16.7934095,1.25897143 L16.7934095,1.25897143 L1.34186667,1.25897143 Z M22.2288762,10.2874286 C21.6735429,10.6721143 21.5352762,11.4346857 21.9199619,11.9896952 L21.9199619,11.9896952 L26.2185333,18.1945333 C26.4562095,18.5377714 26.8373333,18.7213714 27.2252571,18.7213714 L27.2252571,18.7213714 C27.4655238,18.7213714 27.708381,18.650781 27.9208,18.5034476 L27.9208,18.5034476 C28.476781,18.1187619 28.6144,17.3565143 28.2297143,16.801181 L28.2297143,16.801181 L23.9311429,10.5963429 C23.6934667,10.2537524 23.312019,10.0698286 22.924419,10.0698286 L22.924419,10.0698286 C22.6841524,10.0698286 22.441619,10.140419 22.2288762,10.2874286 L22.2288762,10.2874286 Z" id="path-7"></path>
        <linearGradient x1="50%" y1="-21.1305636%" x2="50%" y2="78.7348157%" id="linearGradient-9">
            <stop stop-color="#29B3B4" offset="0%"></stop>
            <stop stop-color="#0F92B5" offset="43.8566811%"></stop>
            <stop stop-color="#007EB5" offset="70.9861527%"></stop>
            <stop stop-color="#6F4B99" offset="100%"></stop>
        </linearGradient>
        <polygon id="path-10" points="0 44.3499238 136 44.3499238 136 0.311828571 0 0.311828571"></polygon>
    </defs>
    <g id="Page-1" stroke="none" stroke-width="1" fill="none" fill-rule="evenodd">
        <g id="GOV.SALogoEN">
            <g id="Group-9" transform="translate(0.000000, 0.323810)">
                <path d="M74.9855429,28.3265333 C74.1122286,28.7937905 73.193581,29.1383238 72.2283048,29.360781 C71.2633524,29.5832381 70.2870667,29.6943048 69.2988,29.6943048 C68.1117143,29.6943048 67.025981,29.5071429 66.0419238,29.132819 C65.0578667,28.7584952 64.2059238,28.231981 63.4857714,27.5539238 C62.7659429,26.8755429 62.2051048,26.0618095 61.8029333,25.1127238 C61.4010857,24.1636381 61.2,23.118381 61.2,21.9766286 C61.2,20.8128571 61.4104762,19.7562667 61.8317524,18.807181 C62.2527048,17.858419 62.8349143,17.0482476 63.5777333,16.3769905 C64.3205524,15.706381 65.1841524,15.1834286 66.1685333,14.8094286 C67.1525905,14.4351048 68.219219,14.247619 69.3677714,14.247619 C70.3709333,14.247619 71.3323238,14.393981 72.2512952,14.6870286 C73.1705905,14.9797524 73.9933905,15.478419 74.7209905,16.1827048 L73.377181,17.5504762 C72.863619,17.0093905 72.2399619,16.5942667 71.5045905,16.3051048 C70.7688952,16.0159429 70.0150667,15.8712 69.2414857,15.8712 C68.3681714,15.8712 67.5599429,16.0233905 66.8171238,16.3271238 C66.0743048,16.631181 65.4276571,17.0537524 64.8758857,17.5948381 C64.3244381,18.1362476 63.8957143,18.7793333 63.5897143,19.524419 C63.2827429,20.2695048 63.1299048,21.0868 63.1299048,21.9766286 C63.1299048,22.8441143 63.2827429,23.6504 63.5897143,24.3954857 C63.8957143,25.1405714 64.3244381,25.7875429 64.8758857,26.3360762 C65.4276571,26.8849333 66.0879048,27.3110667 66.8576,27.6151238 C67.6272952,27.919181 68.4756762,28.0710476 69.402419,28.0710476 C70.0150667,28.0710476 70.6584762,27.9985143 71.3323238,27.8537714 C72.0058476,27.7093524 72.6227048,27.4962857 73.1816,27.2145714 L73.1816,22.7217143 L69.6893143,22.7217143 L69.6893143,21.0981333 L74.9855429,21.0981333 L74.9855429,28.3265333 Z" id="Fill-28" fill="#007EB5"></path>
                <path d="M85.0272648,27.9208324 C85.9080267,27.9208324 86.7162552,27.7615181 87.450979,27.4425657 C88.1866743,27.1239371 88.8181029,26.6880895 89.3468838,26.1359943 C89.875341,25.5835752 90.286579,24.9366038 90.5818933,24.1954038 C90.8768838,23.45388 91.0238933,22.6644324 91.0238933,21.8264133 C91.0238933,20.9815943 90.8768838,20.188261 90.5818933,19.4464133 C90.286579,18.7055371 89.875341,18.0585657 89.3468838,17.5061467 C88.8181029,16.9537276 88.1866743,16.5182038 87.450979,16.1992514 C86.7162552,15.8806229 85.9080267,15.7209848 85.0272648,15.7209848 C84.1390552,15.7209848 83.3272648,15.8806229 82.5922171,16.1992514 C81.8568457,16.5182038 81.2231505,16.9537276 80.6908076,17.5061467 C80.1584648,18.0585657 79.746579,18.7055371 79.4561219,19.4464133 C79.1646933,20.188261 79.0193029,20.9815943 79.0193029,21.8264133 C79.0193029,22.6644324 79.1646933,23.45388 79.4561219,24.1954038 C79.746579,24.9366038 80.1584648,25.5835752 80.6908076,26.1359943 C81.2231505,26.6880895 81.8568457,27.1239371 82.5922171,27.4425657 C83.3272648,27.7615181 84.1390552,27.9208324 85.0272648,27.9208324 M85.0272648,29.5444133 C83.8631695,29.5444133 82.7984838,29.3498038 81.8338552,28.9605848 C80.868579,28.5710419 80.0337981,28.0338419 79.3291886,27.3480133 C78.6249029,26.6621848 78.0750743,25.8468324 77.6806743,24.9013086 C77.2862743,23.9561086 77.0893981,22.9312514 77.0893981,21.8264133 C77.0893981,20.7144514 77.2862743,19.6857086 77.6806743,18.7405086 C78.0750743,17.7953086 78.6249029,16.9799562 79.3291886,16.2938038 C80.0337981,15.608299 80.868579,15.0707752 81.8338552,14.6812324 C82.7984838,14.2920133 83.8631695,14.0977276 85.0272648,14.0977276 C86.1839124,14.0977276 87.2424457,14.2920133 88.2038362,14.6812324 C89.1649029,15.0707752 89.9996838,15.608299 90.7078552,16.2938038 C91.4166743,16.9799562 91.9674743,17.7953086 92.3625219,18.7405086 C92.7565981,19.6857086 92.9541219,20.7144514 92.9541219,21.8264133 C92.9541219,22.9312514 92.7565981,23.9561086 92.3625219,24.9013086 C91.9674743,25.8468324 91.4166743,26.6621848 90.7078552,27.3480133 C89.9996838,28.0338419 89.1649029,28.5710419 88.2038362,28.9605848 C87.2424457,29.3498038 86.1839124,29.5444133 85.0272648,29.5444133" id="Fill-29" fill="#007EB5"></path>
                <polygon id="Fill-30" fill="#007EB5" points="93.0277886 14.4756133 95.0726457 14.4756133 99.7371219 26.553061 99.7831029 26.553061 104.607541 14.4756133 106.502798 14.4756133 100.575465 29.1662038 98.8408171 29.1662038"></polygon>
                <path d="M105.752467,26.8086114 C106.112867,26.8086114 106.417248,26.9271257 106.666257,27.1644781 C106.914619,27.4018305 107.03961,27.6945543 107.03961,28.0432971 C107.03961,28.3917162 106.907171,28.6863829 106.643267,28.9269733 C106.378714,29.1682114 106.081781,29.2886686 105.752467,29.2886686 C105.423152,29.2886686 105.126867,29.1682114 104.862314,28.9269733 C104.59841,28.6863829 104.465971,28.3917162 104.465971,28.0432971 C104.465971,27.6945543 104.592905,27.4018305 104.844829,27.1644781 C105.097724,26.9271257 105.400162,26.8086114 105.752467,26.8086114" id="Fill-31" fill="#007EB5"></path>
                <path d="M117.556522,17.0668343 C117.24955,16.5921295 116.84576,16.2492152 116.344503,16.0380914 C115.842598,15.8266438 115.319646,15.7210819 114.776293,15.7210819 C114.378008,15.7210819 113.98555,15.7696533 113.598922,15.8658248 C113.21197,15.9619962 112.865493,16.106739 112.55917,16.2994057 C112.252846,16.4923962 112.007722,16.7482057 111.823798,17.0668343 C111.639874,17.3854629 111.547912,17.7601105 111.547912,18.1898057 C111.547912,18.5233295 111.601341,18.81832 111.708846,19.0741295 C111.81635,19.3296152 111.990236,19.5617867 112.231798,19.7693486 C112.473036,19.9765867 112.800084,20.1695771 113.213912,20.3476724 C113.627741,20.5254438 114.137093,20.707101 114.74197,20.89232 C115.324179,21.0629676 115.890522,21.2536914 116.442293,21.465139 C116.993093,21.6765867 117.479455,21.93952 117.900731,22.2545867 C118.321684,22.5696533 118.65715,22.96632 118.906484,23.4445867 C119.154846,23.9225295 119.279512,24.5215771 119.279512,25.2404343 C119.279512,25.9748343 119.129912,26.6124152 118.831684,27.153501 C118.533131,27.6945867 118.136789,28.1414438 117.642331,28.4934248 C117.148522,28.8457295 116.581855,29.1086629 115.942008,29.2831962 C115.302808,29.4574057 114.634465,29.5441867 113.937627,29.5441867 C113.51635,29.5441867 113.079855,29.5053295 112.628141,29.4276152 C112.176103,29.349901 111.747379,29.2310629 111.340998,29.0717486 C110.935589,28.9124343 110.554789,28.7048724 110.198274,28.448739 C109.842084,28.1932533 109.534141,27.8801295 109.273798,27.5093676 L110.813189,26.2746819 C111.14995,26.8160914 111.609436,27.2257105 112.191646,27.5038629 C112.773531,27.7816914 113.39395,27.9209295 114.052579,27.9209295 C114.434998,27.9209295 114.823893,27.8652343 115.218293,27.7541676 C115.613017,27.6427771 115.966941,27.479901 116.28136,27.2645676 C116.594808,27.0495581 116.851589,26.7846819 117.051055,26.4696152 C117.24955,26.1545486 117.349608,25.7854057 117.349608,25.3628343 C117.349608,24.9107962 117.270922,24.54392 117.114198,24.2618819 C116.95715,23.9804914 116.715589,23.7337486 116.390484,23.522301 C116.064408,23.3111771 115.649608,23.1236914 115.143817,22.9608152 C114.63835,22.7976152 114.052579,22.6049486 113.385855,22.3824914 C112.842503,22.2192914 112.342541,22.0288914 111.887265,21.8096724 C111.431017,21.591101 111.034998,21.3281676 110.698236,21.0202248 C110.360827,20.7129295 110.096922,20.3402248 109.90555,19.9024343 C109.713531,19.4652914 109.618008,18.942339 109.618008,18.3345486 C109.618008,17.6228152 109.762103,17.0056343 110.048998,16.4830057 C110.336217,15.9603771 110.721227,15.5229105 111.203703,15.1706057 C111.685855,14.8186248 112.235684,14.5518057 112.851893,14.3701486 C113.46875,14.1884914 114.110217,14.097501 114.776293,14.097501 C115.634065,14.097501 116.41736,14.2273486 117.125531,14.48672 C117.833703,14.7464152 118.467722,15.1913295 119.026941,15.8214629 L117.556522,17.0668343 Z" id="Fill-32" fill="#007EB5"></path>
                <path d="M127.42711,16.7109029 L127.392787,16.7109029 L124.233701,23.9393029 L130.437244,23.9393029 L127.42711,16.7109029 Z M126.611434,14.4756457 L128.311758,14.4756457 L134.756863,29.1662362 L132.666025,29.1662362 L131.114977,25.5632076 L123.521968,25.5632076 L121.97092,29.1662362 L119.925739,29.1662362 L126.611434,14.4756457 Z" id="Fill-33" fill="#007EB5"></path>
                <g id="Group-41" transform="translate(4.533333, 0.000000)">
                    <g id="Group-37">
                        <mask id="mask-2" fill="white">
                            <use xlink:href="#path-1"></use>
                        </mask>
                        <g id="Clip-36"></g>
                        <path d="M0.262285714,1.94577143 C-0.155104762,3.24100952 0.5508,4.63371429 1.8460381,5.05110476 L1.8460381,5.05110476 C2.97937143,5.42057143 4.18070476,4.92514286 4.74704762,3.93072381 L4.74704762,3.93072381 L14.594419,3.93072381 L31.050419,27.7177714 C31.2868,28.0645714 31.6688952,28.245581 32.0571429,28.245581 L32.0571429,28.245581 C32.2970857,28.245581 32.5399429,28.177581 32.7533333,28.0286286 L32.7533333,28.0286286 C33.3073714,27.6432952 33.4466095,26.8823429 33.0612762,26.3286286 L33.0612762,26.3286286 L16.2426095,2.01377143 C16.0127048,1.68348571 15.6370857,1.48628571 15.2355619,1.48628571 L15.2355619,1.48628571 L4.74413333,1.48628571 C4.45270476,0.971104762 3.97670476,0.563104762 3.37118095,0.365580952 L3.37118095,0.365580952 C3.11504762,0.281390476 2.8592381,0.242533333 2.60699048,0.242533333 L2.60699048,0.242533333 C1.5675619,0.242533333 0.602609524,0.906342857 0.262285714,1.94577143" id="Fill-35" fill="url(#linearGradient-3)" mask="url(#mask-2)"></path>
                    </g>
                    <g id="Group-40">
                        <mask id="mask-6" fill="white">
                            <use xlink:href="#path-5"></use>
                        </mask>
                        <use id="Clip-39" fill="url(#linearGradient-4)" fill-rule="nonzero" xlink:href="#path-5"></use>
                        <path d="M26.9876457,40.086939 C26.5670171,41.3812057 27.2755124,42.7716438 28.5701029,43.1922724 C29.8646933,43.6132248 31.2551314,42.9047295 31.6754362,41.610139 C32.0960648,40.3155486 31.3875695,38.9251105 30.092979,38.5044819 C29.8400838,38.4222343 29.5833029,38.3830533 29.3310552,38.3830533 C28.2919505,38.3830533 27.3260267,39.0452438 26.9876457,40.086939 L26.9876457,40.086939 Z M25.4106933,8.84450095 C24.9900648,10.1390914 25.6982362,11.5295295 26.9928267,11.9498343 C28.2874171,12.3704629 29.6778552,11.6619676 30.0988076,10.3673771 C30.5191124,9.07311048 29.8106171,7.68267238 28.5160267,7.26204381 C28.2631314,7.17979619 28.0063505,7.14093893 27.7541029,7.14093893 C26.7153219,7.14061524 25.7490743,7.80280571 25.4106933,8.84450095 L25.4106933,8.84450095 Z M17.6956076,17.4112057 C17.1402743,17.7958914 17.0020076,18.5584629 17.3866933,19.1134724 L21.6852648,25.3183105 C21.922941,25.6615486 22.3040648,25.8451486 22.6919886,25.8451486 C22.9322552,25.8451486 23.1751124,25.7745581 23.3875314,25.6272248 C23.9431886,25.242539 24.0811314,24.4802914 23.6964457,23.9249581 L19.3978743,17.72012 C19.1601981,17.3775295 18.7787505,17.1936057 18.3911505,17.1936057 C18.1508838,17.1936057 17.9080267,17.2641962 17.6956076,17.4112057 L17.6956076,17.4112057 Z M27.0588838,8.59970095 C26.5029029,8.98406286 26.3643124,9.74631048 26.7483505,10.3019676 L38.7960076,27.7190343 C39.0246171,28.0496438 39.4008838,28.24652 39.8024076,28.24652 L46.3064457,28.24652 L43.8416076,32.7150914 L22.0518171,32.7086152 L9.84549333,15.1519867 C9.45983619,14.597301 8.69758857,14.4603295 8.14257905,14.8459867 C7.58789333,15.2316438 7.4509219,15.9938914 7.83657905,16.5485771 L20.4078362,34.6304248 C20.6361219,34.9590914 21.0114171,35.15532 21.4116457,35.15532 L44.563379,35.16212 L44.5637029,35.16212 C45.0092648,35.16212 45.4195314,34.9195867 45.6348648,34.52972 L49.449341,27.61412 C49.6585219,27.2352629 49.6517219,26.7741581 49.4318552,26.4014533 C49.2116648,26.0284248 48.8111124,25.800139 48.378179,25.800139 L40.4435505,25.800139 L28.7608267,8.90991048 C28.5231505,8.56667238 28.1417029,8.38242476 27.753779,8.38242476 C27.5138362,8.38242476 27.2713029,8.45301524 27.0588838,8.59970095 L27.0588838,8.59970095 Z M-3.19172571,8.38274857 C-3.6470019,8.38274857 -4.06439238,8.63532 -4.27519238,9.03846286 C-4.48664,9.44160571 -4.45652571,9.92861524 -4.19715429,10.302939 L17.4472457,41.5317771 C17.6755314,41.861739 18.0511505,42.0582914 18.4526743,42.0582914 L28.4013981,42.0582914 C29.0768648,42.0582914 29.6247505,41.5104057 29.6247505,40.834939 C29.6247505,40.1594724 29.0768648,39.6115867 28.4013981,39.6115867 L19.0931695,39.6115867 L-0.85544,10.8291295 L12.2598171,10.8291295 C12.9352838,10.8291295 13.4831695,10.2815676 13.4831695,9.60610095 C13.4831695,8.93063429 12.9352838,8.38274857 12.2598171,8.38274857 L-3.19172571,8.38274857 Z" id="Fill-38" fill="#606060" mask="url(#mask-6)"></path>
                    </g>
                </g>
                <g id="Group-44" transform="translate(0.000000, 7.123810)">
                    <mask id="mask-8" fill="white">
                        <use xlink:href="#path-7"></use>
                    </mask>
                    <g id="Clip-43"></g>
                    <path d="M29.9439619,1.72072381 C29.5233333,3.01531429 30.2315048,4.40575238 31.5260952,4.82605714 L31.5260952,4.82605714 C31.8499048,4.93129524 32.1801905,4.96561905 32.4991429,4.93841905 L32.4991429,4.93841905 L43.3292762,20.5952571 C43.5582095,20.9258667 43.9344762,21.1227429 44.3356762,21.1227429 L44.3356762,21.1227429 L50.8397143,21.1227429 L48.3748762,25.5913143 L26.5854095,25.5848381 L14.3787619,8.02820952 C13.9931048,7.47352381 13.2308571,7.33655238 12.6758476,7.72220952 L12.6758476,7.72220952 C12.1211619,8.10786667 11.9841905,8.87011429 12.3698476,9.4248 L12.3698476,9.4248 L24.9411048,27.5066476 C25.1693905,27.8353143 25.5450095,28.0315429 25.9449143,28.0315429 L25.9449143,28.0315429 L49.0966476,28.0383429 L49.0969714,28.0383429 C49.5425333,28.0383429 49.9528,27.7958095 50.1681333,27.4059429 L50.1681333,27.4059429 L53.9826095,20.4903429 C54.1917905,20.1114857 54.1849905,19.650381 53.9651238,19.2776762 L53.9651238,19.2776762 C53.7449333,18.9046476 53.344381,18.6760381 52.9114476,18.6760381 L52.9114476,18.6760381 L44.976819,18.6760381 L34.511619,3.5460381 C34.5576,3.44921905 34.5980762,3.34851429 34.6320762,3.2436 L34.6320762,3.2436 C35.052381,1.94933333 34.3438857,0.558895238 33.0492952,0.138266667 L33.0492952,0.138266667 C32.7964,0.0560190476 32.539619,0.0171617861 32.2873714,0.0171617861 L32.2873714,0.0171617861 C31.2485905,0.0168380952 30.2823429,0.679028571 29.9439619,1.72072381 L29.9439619,1.72072381 Z M1.34186667,1.25897143 C0.886266667,1.25897143 0.46887619,1.51154286 0.25807619,1.91468571 C0.0466285714,2.31782857 0.0770666667,2.8048381 0.336438095,3.1791619 L21.9808381,34.408 C22.2088,34.7379619 22.584419,34.9345143 22.9862667,34.9345143 L31.7177905,34.9345143 C32.0105143,35.4539048 32.4913714,35.8696762 33.1033714,36.0684952 C34.3979619,36.4894476 35.7887238,35.7809524 36.2087048,34.4860381 C36.6293333,33.1917714 35.9208381,31.8013333 34.6262476,31.3807048 C34.3733524,31.2984571 34.1165714,31.2592762 33.8643238,31.2592762 C32.9939238,31.2592762 32.1743619,31.7239429 31.7323619,32.4878095 L23.6264381,32.4878095 L3.67782857,3.70535238 L16.7934095,3.70535238 C17.4685524,3.70535238 18.0164381,3.15746667 18.0164381,2.48232381 C18.0164381,1.80685714 17.4685524,1.25897143 16.7934095,1.25897143 L1.34186667,1.25897143 Z M22.2288762,10.2874286 C21.6735429,10.6721143 21.5352762,11.4346857 21.9199619,11.9896952 L21.9199619,11.9896952 L26.2185333,18.1945333 C26.4562095,18.5377714 26.8373333,18.7213714 27.2252571,18.7213714 L27.2252571,18.7213714 C27.4655238,18.7213714 27.708381,18.650781 27.9208,18.5034476 L27.9208,18.5034476 C28.476781,18.1187619 28.6144,17.3565143 28.2297143,16.801181 L28.2297143,16.801181 L23.9311429,10.5963429 C23.6934667,10.2537524 23.312019,10.0698286 22.924419,10.0698286 L22.924419,10.0698286 C22.6841524,10.0698286 22.441619,10.140419 22.2288762,10.2874286 L22.2288762,10.2874286 Z" id="Fill-42" fill="url(#linearGradient-9)" fill-rule="nonzero" mask="url(#mask-8)"></path>
                </g>
            </g>
            <mask id="mask-11" fill="white">
                <use xlink:href="#path-10"></use>
            </mask>
            <g id="Clip-16"></g>
            <path d="M63.5337054,42.2161923 C63.85625,42.2161923 64.1301758,42.164016 64.3554827,42.0596633 C64.5807896,41.9553106 64.7634068,41.8159761 64.9033343,41.6416597 C65.0432617,41.4673433 65.1458357,41.26516 65.2110561,41.0351097 C65.2762765,40.8050595 65.3088867,40.5607794 65.3088867,40.3022693 L65.3088867,40.3022693 L65.3088867,37.3958101 L64.7503627,37.3958101 L64.7503627,40.2204474 C64.7503627,40.4149228 64.7302037,40.5999116 64.6898856,40.7754139 C64.6495675,40.9509161 64.5831613,41.1074451 64.4906669,41.2450009 C64.3981724,41.3825567 64.2730678,41.4922456 64.115353,41.5740676 C63.9576381,41.6558896 63.7637556,41.6968006 63.5337054,41.6968006 C63.2989118,41.6968006 63.1044364,41.6558896 62.950279,41.5740676 C62.7961217,41.4922456 62.6722028,41.3825567 62.5785226,41.2450009 C62.4848424,41.1074451 62.4184361,40.9509161 62.3793039,40.7754139 C62.3401716,40.5999116 62.3206055,40.4149228 62.3206055,40.2204474 L62.3206055,40.2204474 L62.3206055,37.3958101 L61.7620815,37.3958101 L61.7620815,40.3022693 C61.7620815,40.5607794 61.7940988,40.8050595 61.8581334,41.0351097 C61.922168,41.26516 62.0235561,41.4673433 62.1622977,41.6416597 C62.3010393,41.8159761 62.4836565,41.9553106 62.7101493,42.0596633 C62.936642,42.164016 63.2111607,42.2161923 63.5337054,42.2161923 Z M66.8741769,42.0952381 L66.8741769,40.5833101 C66.8741769,40.4054362 66.8931501,40.243571 66.9310965,40.0977144 C66.969043,39.9518578 67.0265555,39.8261602 67.1036342,39.7206217 C67.1807129,39.6150832 67.2803223,39.5326683 67.4024623,39.473377 C67.5246024,39.4140858 67.6698661,39.3844401 67.8382533,39.3844401 C68.0825335,39.3844401 68.2615932,39.4591471 68.3754325,39.6085612 C68.4892718,39.7579753 68.5461914,39.9654948 68.5461914,40.2311198 L68.5461914,40.2311198 L68.5461914,42.0952381 L69.0655831,42.0952381 L69.0655831,40.1777576 C69.0655831,39.9903971 69.0424595,39.8184524 68.9962123,39.6619234 C68.9499651,39.5053943 68.8782227,39.371396 68.7809849,39.2599284 C68.6837472,39.1484608 68.5604213,39.0618955 68.4110073,39.0002325 C68.2615932,38.9385696 68.0849051,38.9077381 67.8809431,38.9077381 C67.7552455,38.9077381 67.6366629,38.9249326 67.5251953,38.9593215 C67.4137277,38.9937105 67.3141183,39.0381789 67.2263672,39.0927269 C67.1386161,39.1472749 67.0621303,39.2095308 66.9969099,39.2794945 C66.9316895,39.3494582 66.8824777,39.4223865 66.8492746,39.4982794 L66.8492746,39.4982794 L66.8350446,39.4982794 C66.8350446,39.4105283 66.832673,39.3245559 66.8279297,39.2403623 C66.8231864,39.1561686 66.8208147,39.0725679 66.8208147,38.9895601 L66.8208147,38.9895601 L66.3298828,38.9895601 C66.3298828,39.0915411 66.3340332,39.2041946 66.342334,39.3275205 C66.3506348,39.4508464 66.3547852,39.5836589 66.3547852,39.725958 L66.3547852,39.725958 L66.3547852,42.0952381 L66.8741769,42.0952381 Z M70.3498326,38.1499953 C70.4589286,38.1499953 70.5484584,38.1150135 70.6184222,38.0450498 C70.6883859,37.975086 70.7233677,37.8855562 70.7233677,37.7764602 C70.7233677,37.6744792 70.6872001,37.5855422 70.6148647,37.5096494 C70.5425293,37.4337565 70.4541853,37.3958101 70.3498326,37.3958101 C70.2431083,37.3958101 70.1529855,37.4337565 70.0794643,37.5096494 C70.0059431,37.5855422 69.9691825,37.6744792 69.9691825,37.7764602 C69.9691825,37.8855562 70.0047573,37.975086 70.0759068,38.0450498 C70.1470564,38.1150135 70.238365,38.1499953 70.3498326,38.1499953 Z M70.605971,42.0952381 L70.605971,38.9895601 L70.0901367,38.9895601 L70.0901367,42.0952381 L70.605971,42.0952381 Z M72.4131696,42.0952381 L72.4131696,39.4271298 L73.1673549,39.4271298 L73.1673549,38.9895601 L72.4131696,38.9895601 L72.4131696,38.4025763 C72.4131696,38.2721354 72.4167271,38.1488095 72.4238421,38.0325986 C72.430957,37.9163876 72.4534877,37.8179641 72.4914342,37.7373279 C72.5293806,37.6566918 72.5851144,37.5932501 72.6586356,37.5470029 C72.7321568,37.5007557 72.8365095,37.4776321 72.9716936,37.4776321 C73.0855329,37.4776321 73.2017439,37.4989769 73.3203265,37.5416667 L73.3203265,37.5416667 L73.3950335,37.0791946 C73.3452288,37.0507347 73.2829729,37.0299828 73.2082659,37.0169387 C73.1335589,37.0038946 73.0630022,36.9973726 72.996596,36.9973726 C72.7902623,36.9973726 72.6159459,37.0299828 72.4736468,37.0952032 C72.3313477,37.1604236 72.2169155,37.2499535 72.1303502,37.3637928 C72.0437849,37.4776321 71.9827148,37.6128162 71.9471401,37.7693452 C71.9115653,37.9258743 71.8937779,38.0990048 71.8937779,38.288737 L71.8937779,38.288737 L71.8937779,38.9895601 L71.2178571,38.9895601 L71.2178571,39.4271298 L71.8937779,39.4271298 L71.8937779,42.0952381 L72.4131696,42.0952381 Z M73.9037528,38.1499953 C74.0175921,38.1499953 74.1094936,38.1150135 74.1794573,38.0450498 C74.249421,37.975086 74.2844029,37.8855562 74.2844029,37.7764602 C74.2844029,37.6744792 74.2482352,37.5855422 74.1758998,37.5096494 C74.1035645,37.4337565 74.0128488,37.3958101 73.9037528,37.3958101 C73.7994001,37.3958101 73.7110561,37.4337565 73.6387207,37.5096494 C73.5663853,37.5855422 73.5302176,37.6744792 73.5302176,37.7764602 C73.5302176,37.8855562 73.5651995,37.975086 73.6351632,38.0450498 C73.705127,38.1150135 73.7946568,38.1499953 73.9037528,38.1499953 Z M74.1634487,42.0952381 L74.1634487,38.9895601 L73.6476144,38.9895601 L73.6476144,42.0952381 L74.1634487,42.0952381 Z M76.586091,42.1770601 C76.8801758,42.1770601 77.1375,42.129627 77.3580636,42.034761 C77.5786272,41.9398949 77.7814035,41.7715076 77.9663923,41.5295991 L77.9663923,41.5295991 L77.5786272,41.2272135 C77.4529297,41.3813709 77.3130022,41.4981748 77.1588449,41.5776251 C77.0046875,41.6570754 76.8137695,41.6968006 76.586091,41.6968006 C76.4461635,41.6968006 76.3163156,41.6701195 76.1965472,41.6167573 C76.0767787,41.5633952 75.9724261,41.4916527 75.8834891,41.4015299 C75.7945522,41.3114072 75.7222168,41.2052758 75.666483,41.0831357 C75.6107492,40.9609956 75.5793248,40.8335193 75.5722098,40.7007068 L75.5722098,40.7007068 L78.0802316,40.7007068 L78.0802316,40.5370629 C78.0802316,40.2785528 78.0452497,40.0490955 77.975286,39.8486909 C77.9053223,39.6482864 77.8045271,39.4781203 77.6729004,39.3381929 C77.5412737,39.1982654 77.3847447,39.0915411 77.2033133,39.0180199 C77.021882,38.9444987 76.8232561,38.9077381 76.6074358,38.9077381 C76.3773856,38.9077381 76.1651228,38.9480562 75.9706473,39.0286923 C75.7761719,39.1093285 75.6077846,39.221389 75.4654855,39.364874 C75.3231864,39.5083589 75.2123117,39.6803037 75.1328613,39.8807082 C75.053411,40.0811128 75.0136858,40.3022693 75.0136858,40.5441778 C75.0136858,40.7671131 75.0504464,40.978783 75.1239676,41.1791876 C75.1974888,41.3795922 75.3018415,41.5527227 75.4370257,41.6985793 C75.5722098,41.8444359 75.7370396,41.9606469 75.9315151,42.0472121 C76.1259905,42.1337774 76.3441825,42.1770601 76.586091,42.1770601 Z M77.5217076,40.2631371 L75.5722098,40.2631371 C75.6054129,39.9975121 75.7097656,39.7846563 75.8852679,39.6245698 C76.0607701,39.4644834 76.2943778,39.3844401 76.586091,39.3844401 C76.8801758,39.3844401 77.1072614,39.4644834 77.2673479,39.6245698 C77.4274344,39.7846563 77.512221,39.9975121 77.5217076,40.2631371 L77.5217076,40.2631371 Z M80.250293,42.1770601 C80.5301479,42.1770601 80.7756138,42.11599 80.9866908,41.99385 C81.1977679,41.8717099 81.3519252,41.7217029 81.4491629,41.5438291 L81.4491629,41.5438291 L81.4598354,41.5438291 L81.4598354,42.0952381 L81.9792271,42.0952381 L81.9792271,37.0791946 L81.4598354,37.0791946 L81.4598354,39.4413597 L81.4491629,39.4413597 C81.3044922,39.2729725 81.1384766,39.1419387 80.9511161,39.0482585 C80.7637556,38.9545782 80.5574219,38.9077381 80.332115,38.9077381 C80.0878348,38.9077381 79.8654925,38.949242 79.6650879,39.0322498 C79.4646833,39.1152576 79.2933315,39.2296898 79.1510324,39.3755464 C79.0087333,39.521403 78.8978585,39.6933477 78.8184082,39.8913807 C78.7389579,40.0894136 78.6992327,40.3070126 78.6992327,40.5441778 C78.6992327,40.7765997 78.7389579,40.9930129 78.8184082,41.1934175 C78.8978585,41.3938221 79.0075474,41.5669527 79.1474749,41.7128092 C79.2874023,41.8586658 79.4510463,41.9725051 79.6384068,42.0543271 C79.8257673,42.1361491 80.0297294,42.1770601 80.250293,42.1770601 Z M80.3570173,41.6968006 C80.18863,41.6968006 80.0374372,41.6671549 79.9034389,41.6078637 C79.7694406,41.5485724 79.6538225,41.4667504 79.5565848,41.3623977 C79.4593471,41.258045 79.385233,41.1364979 79.3342425,40.9977562 C79.283252,40.8590146 79.2577567,40.7078218 79.2577567,40.5441778 C79.2577567,40.3781622 79.283252,40.2257836 79.3342425,40.0870419 C79.385233,39.9483003 79.4593471,39.8267532 79.5565848,39.7224005 C79.6538225,39.6180478 79.7694406,39.5356329 79.9034389,39.4751558 C80.0374372,39.4146787 80.18863,39.3844401 80.3570173,39.3844401 C80.5277762,39.3844401 80.6801549,39.4146787 80.8141532,39.4751558 C80.9481515,39.5356329 81.0637695,39.6180478 81.1610073,39.7224005 C81.258245,39.8267532 81.3323591,39.9483003 81.3833496,40.0870419 C81.4343401,40.2257836 81.4598354,40.3781622 81.4598354,40.5441778 C81.4598354,40.7078218 81.4343401,40.8590146 81.3833496,40.9977562 C81.3323591,41.1364979 81.258245,41.258045 81.1610073,41.3623977 C81.0637695,41.4667504 80.9481515,41.5485724 80.8141532,41.6078637 C80.6801549,41.6671549 80.5277762,41.6968006 80.3570173,41.6968006 Z M85.0030831,42.0952381 L85.0030831,38.1926851 L85.0137556,38.1926851 L87.7387835,42.0952381 L88.4396066,42.0952381 L88.4396066,37.3958101 L87.8846401,37.3958101 L87.8846401,41.2983631 L87.8704102,41.2983631 L85.1489397,37.3958101 L84.4445592,37.3958101 L84.4445592,42.0952381 L85.0030831,42.0952381 Z M90.4887137,42.1770601 C90.7282506,42.1770601 90.9333984,42.1254767 91.1041574,42.0223098 C91.2749163,41.919143 91.4112863,41.789295 91.5132673,41.632766 L91.5132673,41.632766 L91.5274972,41.632766 C91.5274972,41.6968006 91.528683,41.7721005 91.5310547,41.8586658 C91.5334263,41.9452311 91.5429129,42.0240885 91.5595145,42.0952381 L91.5595145,42.0952381 L92.0575614,42.0952381 C92.0457031,42.0146019 92.0350307,41.9268508 92.0255441,41.8319847 C92.0160575,41.7371187 92.0113142,41.6458101 92.0113142,41.558059 L92.0113142,41.558059 L92.0113142,40.2204474 C92.0113142,39.7816918 91.910519,39.453218 91.7089286,39.235026 C91.5073382,39.0168341 91.1741211,38.9077381 90.7092773,38.9077381 C90.4839704,38.9077381 90.262221,38.9468703 90.044029,39.0251349 C89.8258371,39.1033994 89.6361049,39.2231678 89.4748326,39.3844401 L89.4748326,39.3844401 L89.7985631,39.725958 C89.9242606,39.6121187 90.0677455,39.5267392 90.2290179,39.4698196 C90.3902902,39.4128999 90.55512,39.3844401 90.7235073,39.3844401 C90.9677874,39.3844401 91.1575195,39.4425456 91.2927037,39.5587565 C91.4278878,39.6749674 91.4954799,39.8457264 91.4954799,40.0710333 L91.4954799,40.0710333 L91.4954799,40.1635277 L91.2927037,40.1635277 C91.1029715,40.1635277 90.8942662,40.1724214 90.6665876,40.1902088 C90.438909,40.2079962 90.2266462,40.2524647 90.0297991,40.3236142 C89.832952,40.3947638 89.6681222,40.5032668 89.5353097,40.6491234 C89.4024972,40.79498 89.336091,40.9959775 89.336091,41.2521159 C89.336091,41.4039016 89.3669224,41.5367141 89.4285854,41.6505534 C89.4902483,41.7643927 89.5732561,41.8604446 89.6776088,41.9387091 C89.7819615,42.0169736 89.9041016,42.0762649 90.044029,42.116583 C90.1839565,42.156901 90.3321847,42.1770601 90.4887137,42.1770601 Z M90.5776507,41.7359328 C90.3831752,41.7359328 90.2207171,41.6956148 90.0902762,41.6149786 C89.9598354,41.5343424 89.894615,41.3967866 89.894615,41.2023112 C89.894615,40.9864909 89.9918527,40.8323335 90.1863281,40.7398391 C90.3808036,40.6473447 90.6440569,40.6010975 90.9760882,40.6010975 L90.9760882,40.6010975 L91.4954799,40.6010975 L91.4954799,40.8003162 C91.4907366,40.9283854 91.4682059,41.0487467 91.4278878,41.1614002 C91.3875698,41.2740537 91.3294643,41.3724772 91.2535714,41.4566709 C91.1776786,41.5408645 91.0839983,41.6084566 90.9725307,41.6594471 C90.8610631,41.7104376 90.7294364,41.7359328 90.5776507,41.7359328 Z M94.0746512,42.1770601 C94.171889,42.1770601 94.2744629,42.1675735 94.382373,42.1486003 C94.4902832,42.129627 94.5881138,42.1011672 94.675865,42.0632208 L94.675865,42.0632208 L94.6580776,41.5900763 C94.5892997,41.625651 94.5145926,41.6523321 94.4339565,41.6701195 C94.3533203,41.6879069 94.2750558,41.6968006 94.1991629,41.6968006 C94.0853237,41.6968006 93.9969796,41.6778274 93.9341309,41.639881 C93.8712821,41.6019345 93.8250349,41.550944 93.7953892,41.4869094 C93.7657436,41.4228748 93.7485491,41.3475749 93.7438058,41.2610096 C93.7390625,41.1744443 93.7366908,41.081357 93.7366908,40.9817476 L93.7366908,40.9817476 L93.7366908,39.4271298 L94.6509626,39.4271298 L94.6509626,38.9895601 L93.7366908,38.9895601 L93.7366908,38.1073056 L93.2172991,38.1073056 L93.2172991,38.9895601 L92.5413783,38.9895601 L92.5413783,39.4271298 L93.2172991,39.4271298 L93.2172991,41.1311616 C93.2172991,41.292434 93.2273786,41.4382906 93.2475377,41.5687314 C93.2676967,41.6991722 93.3092006,41.8088611 93.3720494,41.8977981 C93.4348982,41.986735 93.5214634,42.0555129 93.6317453,42.1041318 C93.7420271,42.1527507 93.8896624,42.1770601 94.0746512,42.1770601 Z M95.5936942,38.1499953 C95.7027902,38.1499953 95.79232,38.1150135 95.8622838,38.0450498 C95.9322475,37.975086 95.9672294,37.8855562 95.9672294,37.7764602 C95.9672294,37.6744792 95.9310617,37.5855422 95.8587263,37.5096494 C95.7863909,37.4337565 95.6980469,37.3958101 95.5936942,37.3958101 C95.4869699,37.3958101 95.3968471,37.4337565 95.3233259,37.5096494 C95.2498047,37.5855422 95.2130441,37.6744792 95.2130441,37.7764602 C95.2130441,37.8855562 95.2486189,37.975086 95.3197684,38.0450498 C95.390918,38.1150135 95.4822266,38.1499953 95.5936942,38.1499953 Z M95.8498326,42.0952381 L95.8498326,38.9895601 L95.3339983,38.9895601 L95.3339983,42.0952381 L95.8498326,42.0952381 Z M98.3542969,42.1770601 C98.5962054,42.1770601 98.8185477,42.136742 99.0213239,42.0561058 C99.2241002,41.9754697 99.3984166,41.8634091 99.5442732,41.7199242 C99.6901297,41.5764393 99.8051549,41.4050874 99.8893485,41.2058687 C99.9735421,41.0066499 100.015639,40.7860863 100.015639,40.5441778 C100.015639,40.2998977 99.9735421,40.0781483 99.8893485,39.8789295 C99.8051549,39.6797108 99.6901297,39.5083589 99.5442732,39.364874 C99.3984166,39.221389 99.2241002,39.1093285 99.0213239,39.0286923 C98.8185477,38.9480562 98.5962054,38.9077381 98.3542969,38.9077381 C98.11476,38.9077381 97.8936035,38.9480562 97.6908273,39.0286923 C97.4880511,39.1093285 97.3137347,39.221389 97.1678781,39.364874 C97.0220215,39.5083589 96.9069964,39.6797108 96.8228027,39.8789295 C96.7386091,40.0781483 96.6965123,40.2998977 96.6965123,40.5441778 C96.6965123,40.7860863 96.7386091,41.0066499 96.8228027,41.2058687 C96.9069964,41.4050874 97.0220215,41.5764393 97.1678781,41.7199242 C97.3137347,41.8634091 97.4880511,41.9754697 97.6908273,42.0561058 C97.8936035,42.136742 98.11476,42.1770601 98.3542969,42.1770601 Z M98.3542969,41.6968006 C98.1859096,41.6968006 98.0347168,41.6671549 97.9007185,41.6078637 C97.7667201,41.5485724 97.6511021,41.4667504 97.5538644,41.3623977 C97.4566267,41.258045 97.3825126,41.1364979 97.331522,40.9977562 C97.2805315,40.8590146 97.2550363,40.7078218 97.2550363,40.5441778 C97.2550363,40.3781622 97.2805315,40.2257836 97.331522,40.0870419 C97.3825126,39.9483003 97.4566267,39.8267532 97.5538644,39.7224005 C97.6511021,39.6180478 97.7667201,39.5356329 97.9007185,39.4751558 C98.0347168,39.4146787 98.1859096,39.3844401 98.3542969,39.3844401 C98.5250558,39.3844401 98.6774344,39.4146787 98.8114328,39.4751558 C98.9454311,39.5356329 99.0610491,39.6180478 99.1582868,39.7224005 C99.2555246,39.8267532 99.3296387,39.9483003 99.3806292,40.0870419 C99.4316197,40.2257836 99.457115,40.3781622 99.457115,40.5441778 C99.457115,40.7078218 99.4316197,40.8590146 99.3806292,40.9977562 C99.3296387,41.1364979 99.2555246,41.258045 99.1582868,41.3623977 C99.0610491,41.4667504 98.9454311,41.5485724 98.8114328,41.6078637 C98.6774344,41.6671549 98.5250558,41.6968006 98.3542969,41.6968006 Z M101.331906,42.0952381 L101.331906,40.5833101 C101.331906,40.4054362 101.350879,40.243571 101.388825,40.0977144 C101.426772,39.9518578 101.484284,39.8261602 101.561363,39.7206217 C101.638442,39.6150832 101.738051,39.5326683 101.860191,39.473377 C101.982331,39.4140858 102.127595,39.3844401 102.295982,39.3844401 C102.540262,39.3844401 102.719322,39.4591471 102.833161,39.6085612 C102.947001,39.7579753 103.00392,39.9654948 103.00392,40.2311198 L103.00392,40.2311198 L103.00392,42.0952381 L103.523312,42.0952381 L103.523312,40.1777576 C103.523312,39.9903971 103.500188,39.8184524 103.453941,39.6619234 C103.407694,39.5053943 103.335951,39.371396 103.238714,39.2599284 C103.141476,39.1484608 103.01815,39.0618955 102.868736,39.0002325 C102.719322,38.9385696 102.542634,38.9077381 102.338672,38.9077381 C102.212974,38.9077381 102.094392,38.9249326 101.982924,38.9593215 C101.871456,38.9937105 101.771847,39.0381789 101.684096,39.0927269 C101.596345,39.1472749 101.519859,39.2095308 101.454639,39.2794945 C101.389418,39.3494582 101.340206,39.4223865 101.307003,39.4982794 L101.307003,39.4982794 L101.292773,39.4982794 C101.292773,39.4105283 101.290402,39.3245559 101.285658,39.2403623 C101.280915,39.1561686 101.278544,39.0725679 101.278544,38.9895601 L101.278544,38.9895601 L100.787612,38.9895601 C100.787612,39.0915411 100.791762,39.2041946 100.800063,39.3275205 C100.808364,39.4508464 100.812514,39.5836589 100.812514,39.725958 L100.812514,39.725958 L100.812514,42.0952381 L101.331906,42.0952381 Z M105.47281,42.1770601 C105.712347,42.1770601 105.917494,42.1254767 106.088253,42.0223098 C106.259012,41.919143 106.395382,41.789295 106.497363,41.632766 L106.497363,41.632766 L106.511593,41.632766 C106.511593,41.6968006 106.512779,41.7721005 106.515151,41.8586658 C106.517522,41.9452311 106.527009,42.0240885 106.54361,42.0952381 L106.54361,42.0952381 L107.041657,42.0952381 C107.029799,42.0146019 107.019127,41.9268508 107.00964,41.8319847 C107.000153,41.7371187 106.99541,41.6458101 106.99541,41.558059 L106.99541,41.558059 L106.99541,40.2204474 C106.99541,39.7816918 106.894615,39.453218 106.693025,39.235026 C106.491434,39.0168341 106.158217,38.9077381 105.693373,38.9077381 C105.468066,38.9077381 105.246317,38.9468703 105.028125,39.0251349 C104.809933,39.1033994 104.620201,39.2231678 104.458929,39.3844401 L104.458929,39.3844401 L104.782659,39.725958 C104.908357,39.6121187 105.051842,39.5267392 105.213114,39.4698196 C105.374386,39.4128999 105.539216,39.3844401 105.707603,39.3844401 C105.951883,39.3844401 106.141616,39.4425456 106.2768,39.5587565 C106.411984,39.6749674 106.479576,39.8457264 106.479576,40.0710333 L106.479576,40.0710333 L106.479576,40.1635277 L106.2768,40.1635277 C106.087068,40.1635277 105.878362,40.1724214 105.650684,40.1902088 C105.423005,40.2079962 105.210742,40.2524647 105.013895,40.3236142 C104.817048,40.3947638 104.652218,40.5032668 104.519406,40.6491234 C104.386593,40.79498 104.320187,40.9959775 104.320187,41.2521159 C104.320187,41.4039016 104.351018,41.5367141 104.412681,41.6505534 C104.474344,41.7643927 104.557352,41.8604446 104.661705,41.9387091 C104.766057,42.0169736 104.888198,42.0762649 105.028125,42.116583 C105.168052,42.156901 105.316281,42.1770601 105.47281,42.1770601 Z M105.561747,41.7359328 C105.367271,41.7359328 105.204813,41.6956148 105.074372,41.6149786 C104.943931,41.5343424 104.878711,41.3967866 104.878711,41.2023112 C104.878711,40.9864909 104.975949,40.8323335 105.170424,40.7398391 C105.3649,40.6473447 105.628153,40.6010975 105.960184,40.6010975 L105.960184,40.6010975 L106.479576,40.6010975 L106.479576,40.8003162 C106.474833,40.9283854 106.452302,41.0487467 106.411984,41.1614002 C106.371666,41.2740537 106.31356,41.3724772 106.237667,41.4566709 C106.161775,41.5408645 106.068094,41.6084566 105.956627,41.6594471 C105.845159,41.7104376 105.713532,41.7359328 105.561747,41.7359328 Z M108.503781,42.0952381 L108.503781,37.0791946 L107.984389,37.0791946 L107.984389,42.0952381 L108.503781,42.0952381 Z M111.602344,42.0952381 L111.602344,39.9856538 L112.545075,39.9856538 C112.708719,39.9856538 112.881257,39.9654948 113.062688,39.9251767 C113.24412,39.8848586 113.411321,39.8160807 113.564293,39.718843 C113.717264,39.6216053 113.842369,39.4887928 113.939607,39.3204055 C114.036844,39.1520182 114.085463,38.9397554 114.085463,38.683617 C114.085463,38.4417085 114.039809,38.2371536 113.9485,38.0699521 C113.857192,37.9027507 113.735645,37.7699382 113.583859,37.6715146 C113.432073,37.5730911 113.257164,37.5025344 113.059131,37.4598447 C112.861098,37.4171549 112.654171,37.3958101 112.438351,37.3958101 L112.438351,37.3958101 L111.04382,37.3958101 L111.04382,42.0952381 L111.602344,42.0952381 Z M112.545075,39.4662621 L111.602344,39.4662621 L111.602344,37.9152018 L112.545075,37.9152018 C112.822559,37.9152018 113.049051,37.9774577 113.224554,38.1019694 C113.400056,38.2264811 113.487807,38.4227353 113.487807,38.690732 C113.487807,38.956357 113.400056,39.1520182 113.224554,39.2777158 C113.049051,39.4034133 112.822559,39.4662621 112.545075,39.4662621 L112.545075,39.4662621 Z M115.447977,42.0952381 L115.447977,37.0791946 L114.928585,37.0791946 L114.928585,42.0952381 L115.447977,42.0952381 Z M117.44728,42.1770601 C117.686816,42.1770601 117.891964,42.1254767 118.062723,42.0223098 C118.233482,41.919143 118.369852,41.789295 118.471833,41.632766 L118.471833,41.632766 L118.486063,41.632766 C118.486063,41.6968006 118.487249,41.7721005 118.489621,41.8586658 C118.491992,41.9452311 118.501479,42.0240885 118.51808,42.0952381 L118.51808,42.0952381 L119.016127,42.0952381 C119.004269,42.0146019 118.993597,41.9268508 118.98411,41.8319847 C118.974623,41.7371187 118.96988,41.6458101 118.96988,41.558059 L118.96988,41.558059 L118.96988,40.2204474 C118.96988,39.7816918 118.869085,39.453218 118.667494,39.235026 C118.465904,39.0168341 118.132687,38.9077381 117.667843,38.9077381 C117.442536,38.9077381 117.220787,38.9468703 117.002595,39.0251349 C116.784403,39.1033994 116.594671,39.2231678 116.433398,39.3844401 L116.433398,39.3844401 L116.757129,39.725958 C116.882826,39.6121187 117.026311,39.5267392 117.187584,39.4698196 C117.348856,39.4128999 117.513686,39.3844401 117.682073,39.3844401 C117.926353,39.3844401 118.116085,39.4425456 118.25127,39.5587565 C118.386454,39.6749674 118.454046,39.8457264 118.454046,40.0710333 L118.454046,40.0710333 L118.454046,40.1635277 L118.25127,40.1635277 C118.061537,40.1635277 117.852832,40.1724214 117.625153,40.1902088 C117.397475,40.2079962 117.185212,40.2524647 116.988365,40.3236142 C116.791518,40.3947638 116.626688,40.5032668 116.493876,40.6491234 C116.361063,40.79498 116.294657,40.9959775 116.294657,41.2521159 C116.294657,41.4039016 116.325488,41.5367141 116.387151,41.6505534 C116.448814,41.7643927 116.531822,41.8604446 116.636175,41.9387091 C116.740527,42.0169736 116.862667,42.0762649 117.002595,42.116583 C117.142522,42.156901 117.290751,42.1770601 117.44728,42.1770601 Z M117.536217,41.7359328 C117.341741,41.7359328 117.179283,41.6956148 117.048842,41.6149786 C116.918401,41.5343424 116.853181,41.3967866 116.853181,41.2023112 C116.853181,40.9864909 116.950419,40.8323335 117.144894,40.7398391 C117.339369,40.6473447 117.602623,40.6010975 117.934654,40.6010975 L117.934654,40.6010975 L118.454046,40.6010975 L118.454046,40.8003162 C118.449302,40.9283854 118.426772,41.0487467 118.386454,41.1614002 C118.346136,41.2740537 118.28803,41.3724772 118.212137,41.4566709 C118.136244,41.5408645 118.042564,41.6084566 117.931097,41.6594471 C117.819629,41.7104376 117.688002,41.7359328 117.536217,41.7359328 Z M121.033217,42.1770601 C121.130455,42.1770601 121.233029,42.1675735 121.340939,42.1486003 C121.448849,42.129627 121.54668,42.1011672 121.634431,42.0632208 L121.634431,42.0632208 L121.616643,41.5900763 C121.547866,41.625651 121.473158,41.6523321 121.392522,41.6701195 C121.311886,41.6879069 121.233622,41.6968006 121.157729,41.6968006 C121.04389,41.6968006 120.955545,41.6778274 120.892697,41.639881 C120.829848,41.6019345 120.783601,41.550944 120.753955,41.4869094 C120.724309,41.4228748 120.707115,41.3475749 120.702372,41.2610096 C120.697628,41.1744443 120.695257,41.081357 120.695257,40.9817476 L120.695257,40.9817476 L120.695257,39.4271298 L121.609528,39.4271298 L121.609528,38.9895601 L120.695257,38.9895601 L120.695257,38.1073056 L120.175865,38.1073056 L120.175865,38.9895601 L119.499944,38.9895601 L119.499944,39.4271298 L120.175865,39.4271298 L120.175865,41.1311616 C120.175865,41.292434 120.185944,41.4382906 120.206104,41.5687314 C120.226263,41.6991722 120.267766,41.8088611 120.330615,41.8977981 C120.393464,41.986735 120.480029,42.0555129 120.590311,42.1041318 C120.700593,42.1527507 120.848228,42.1770601 121.033217,42.1770601 Z M123.025405,42.0952381 L123.025405,39.4271298 L123.77959,39.4271298 L123.77959,38.9895601 L123.025405,38.9895601 L123.025405,38.4025763 C123.025405,38.2721354 123.028962,38.1488095 123.036077,38.0325986 C123.043192,37.9163876 123.065723,37.8179641 123.103669,37.7373279 C123.141616,37.6566918 123.197349,37.5932501 123.270871,37.5470029 C123.344392,37.5007557 123.448744,37.4776321 123.583929,37.4776321 C123.697768,37.4776321 123.813979,37.4989769 123.932561,37.5416667 L123.932561,37.5416667 L124.007268,37.0791946 C123.957464,37.0507347 123.895208,37.0299828 123.820501,37.0169387 C123.745794,37.0038946 123.675237,36.9973726 123.608831,36.9973726 C123.402497,36.9973726 123.228181,37.0299828 123.085882,37.0952032 C122.943583,37.1604236 122.82915,37.2499535 122.742585,37.3637928 C122.65602,37.4776321 122.59495,37.6128162 122.559375,37.7693452 C122.5238,37.9258743 122.506013,38.0990048 122.506013,38.288737 L122.506013,38.288737 L122.506013,38.9895601 L121.830092,38.9895601 L121.830092,39.4271298 L122.506013,39.4271298 L122.506013,42.0952381 L123.025405,42.0952381 Z M125.81091,42.1770601 C126.052818,42.1770601 126.27516,42.136742 126.477937,42.0561058 C126.680713,41.9754697 126.855029,41.8634091 127.000886,41.7199242 C127.146742,41.5764393 127.261768,41.4050874 127.345961,41.2058687 C127.430155,41.0066499 127.472252,40.7860863 127.472252,40.5441778 C127.472252,40.2998977 127.430155,40.0781483 127.345961,39.8789295 C127.261768,39.6797108 127.146742,39.5083589 127.000886,39.364874 C126.855029,39.221389 126.680713,39.1093285 126.477937,39.0286923 C126.27516,38.9480562 126.052818,38.9077381 125.81091,38.9077381 C125.571373,38.9077381 125.350216,38.9480562 125.14744,39.0286923 C124.944664,39.1093285 124.770347,39.221389 124.624491,39.364874 C124.478634,39.5083589 124.363609,39.6797108 124.279415,39.8789295 C124.195222,40.0781483 124.153125,40.2998977 124.153125,40.5441778 C124.153125,40.7860863 124.195222,41.0066499 124.279415,41.2058687 C124.363609,41.4050874 124.478634,41.5764393 124.624491,41.7199242 C124.770347,41.8634091 124.944664,41.9754697 125.14744,42.0561058 C125.350216,42.136742 125.571373,42.1770601 125.81091,42.1770601 Z M125.81091,41.6968006 C125.642522,41.6968006 125.49133,41.6671549 125.357331,41.6078637 C125.223333,41.5485724 125.107715,41.4667504 125.010477,41.3623977 C124.913239,41.258045 124.839125,41.1364979 124.788135,40.9977562 C124.737144,40.8590146 124.711649,40.7078218 124.711649,40.5441778 C124.711649,40.3781622 124.737144,40.2257836 124.788135,40.0870419 C124.839125,39.9483003 124.913239,39.8267532 125.010477,39.7224005 C125.107715,39.6180478 125.223333,39.5356329 125.357331,39.4751558 C125.49133,39.4146787 125.642522,39.3844401 125.81091,39.3844401 C125.981669,39.3844401 126.134047,39.4146787 126.268045,39.4751558 C126.402044,39.5356329 126.517662,39.6180478 126.6149,39.7224005 C126.712137,39.8267532 126.786251,39.9483003 126.837242,40.0870419 C126.888232,40.2257836 126.913728,40.3781622 126.913728,40.5441778 C126.913728,40.7078218 126.888232,40.8590146 126.837242,40.9977562 C126.786251,41.1364979 126.712137,41.258045 126.6149,41.3623977 C126.517662,41.4667504 126.402044,41.5485724 126.268045,41.6078637 C126.134047,41.6671549 125.981669,41.6968006 125.81091,41.6968006 Z M128.788518,42.0952381 L128.788518,40.5833101 C128.788518,40.222819 128.860261,39.9399995 129.003746,39.7348517 C129.147231,39.5297038 129.37906,39.4271298 129.699233,39.4271298 C129.79647,39.4271298 129.888965,39.4401739 129.976716,39.4662621 L129.976716,39.4662621 L130.012291,38.9433129 C129.948256,38.9195964 129.875921,38.9077381 129.795285,38.9077381 C129.669587,38.9077381 129.551004,38.9249326 129.439537,38.9593215 C129.328069,38.9937105 129.22846,39.0381789 129.140709,39.0927269 C129.052958,39.1472749 128.976472,39.2095308 128.911251,39.2794945 C128.846031,39.3494582 128.796819,39.4223865 128.763616,39.4982794 L128.763616,39.4982794 L128.749386,39.4982794 C128.749386,39.4105283 128.747015,39.3245559 128.742271,39.2403623 C128.737528,39.1561686 128.735156,39.0725679 128.735156,38.9895601 L128.735156,38.9895601 L128.244224,38.9895601 C128.244224,39.0915411 128.248375,39.2041946 128.256676,39.3275205 C128.264976,39.4508464 128.269127,39.5836589 128.269127,39.725958 L128.269127,39.725958 L128.269127,42.0952381 L128.788518,42.0952381 Z M131.118666,42.0952381 L131.118666,40.5833101 C131.118666,40.4054362 131.13764,40.243571 131.175586,40.0977144 C131.213532,39.9518578 131.271045,39.8261602 131.348124,39.7206217 C131.425202,39.6150832 131.524812,39.5326683 131.646952,39.473377 C131.769092,39.4140858 131.914355,39.3844401 132.082743,39.3844401 C132.29382,39.3844401 132.445605,39.4567755 132.5381,39.6014462 C132.630594,39.746117 132.676842,39.9903971 132.676842,40.3342866 L132.676842,40.3342866 L132.676842,42.0952381 L133.196233,42.0952381 L133.196233,40.3022693 C133.196233,40.1670852 133.217578,40.0425735 133.260268,39.9287342 C133.302958,39.8148949 133.36047,39.7182501 133.432806,39.6387998 C133.505141,39.5593494 133.589927,39.4970936 133.687165,39.4520322 C133.784403,39.4069708 133.888756,39.3844401 134.000223,39.3844401 C134.149637,39.3844401 134.273556,39.4087495 134.37198,39.4573684 C134.470403,39.5059873 134.548075,39.5706148 134.604994,39.6512509 C134.661914,39.7318871 134.701046,39.8226028 134.722391,39.923398 C134.743736,40.0241932 134.754408,40.1291388 134.754408,40.2382347 L134.754408,40.2382347 L134.754408,42.0952381 L135.2738,42.0952381 L135.2738,40.2097749 C135.2738,40.0105562 135.253641,39.8303106 135.213323,39.6690383 C135.173005,39.507766 135.106599,39.3708031 135.014104,39.2581496 C134.92161,39.1454962 134.800063,39.0589309 134.649463,38.9984538 C134.498863,38.9379767 134.312095,38.9077381 134.08916,38.9077381 C133.851995,38.9077381 133.658705,38.9599144 133.509291,39.0642671 C133.359877,39.1686198 133.225879,39.3132906 133.107296,39.4982794 C133.081208,39.4461031 133.047412,39.3856259 133.005908,39.316848 C132.964404,39.2480701 132.906299,39.1840355 132.831592,39.1247442 C132.756885,39.0654529 132.662612,39.0144624 132.548772,38.9717727 C132.434933,38.929083 132.29382,38.9077381 132.125432,38.9077381 C131.999735,38.9077381 131.881152,38.9249326 131.769685,38.9593215 C131.658217,38.9937105 131.558608,39.0381789 131.470857,39.0927269 C131.383105,39.1472749 131.30662,39.2095308 131.241399,39.2794945 C131.176179,39.3494582 131.126967,39.4223865 131.093764,39.4982794 L131.093764,39.4982794 L131.079534,39.4982794 C131.079534,39.4105283 131.077162,39.3245559 131.072419,39.2403623 C131.067676,39.1561686 131.065304,39.0725679 131.065304,38.9895601 L131.065304,38.9895601 L130.574372,38.9895601 C130.574372,39.0915411 130.578523,39.2041946 130.586823,39.3275205 C130.595124,39.4508464 130.599275,39.5836589 130.599275,39.725958 L130.599275,39.725958 L130.599275,42.0952381 L131.118666,42.0952381 Z" id="UnifiedNationalPlatform" fill="#37326D" fill-rule="nonzero" mask="url(#mask-11)"></path>
        </g>
    </g>
</svg>